<?xml version="1.0" encoding="utf-8"?>
<!-- Generator: Adobe Illustrator 19.0.0, SVG Export Plug-In . SVG Version: 6.00 Build 0)  -->
<svg version="1.1" id="Layer_1" xmlns="http://www.w3.org/2000/svg" xmlns:xlink="http://www.w3.org/1999/xlink" x="0px" y="0px"
	 viewBox="0 0 500 500" style="enable-background:new 0 0 500 500;" xml:space="preserve">
<style type="text/css">
	.st0{fill:#ED1C24;}
	.st1{fill:#FFFFFF;}
</style>
<g id="XMLID_1_">
	<polygon id="XMLID_3_" class="st0" points="409,286.6 81.9,286.6 84.9,272.5 404.9,272.5 	"/>
	<polygon id="XMLID_4_" class="st0" points="67.5,286.8 80.8,226.1 94.5,226.1 94.5,248.8 107.9,226.1 122.8,226.1 113.4,268.9 
		100.6,268.9 104.5,251.6 95.4,268.9 86.4,268.9 86.4,252.2 78.8,286.9 	"/>
	<path id="XMLID_9_" class="st0" d="M126.5,239.7h29.8l-2.3,10.9h-18.3l-1.4,6.3h18.2l-2.7,12.1l-29.9,0L126.5,239.7z M126.5,239.7
		h29.8l-2.3,10.9h-18.3l-1.4,6.3h18.2l-2.7,12.1l-29.9,0L126.5,239.7z M129.5,226.1l29.9,0l-2.2,9.9h-29.9L129.5,226.1z
		 M129.5,226.1l29.9,0l-2.2,9.9h-29.9L129.5,226.1z"/>
	<polygon id="XMLID_10_" class="st0" points="162.7,226.1 197.1,226.1 194.9,236 184,236 176.8,268.9 164.2,268.9 171.4,236 
		160.5,236 	"/>
	<path id="XMLID_13_" class="st0" d="M197.8,239.7h23.3l4,29.2l-14,0l-1.5-17.3h-4.4l-9,17.4h-14.9l15.7-28L197.8,239.7z
		 M220.6,235.9l-1.6-9.9h-14.2l-5.5,9.9H220.6z"/>
	<polygon id="XMLID_14_" class="st0" points="236.8,226.1 248.8,226.1 241.8,257.9 259.5,257.9 257,268.9 227.3,268.9 	"/>
	<polygon id="XMLID_15_" class="st0" points="285.3,250.7 287.8,239.7 307.8,239.7 301.4,268.9 273.9,268.9 266.3,245.4 
		282.9,226.1 310.9,226.1 308.6,236 289.6,236 279.9,246.2 283,257 292.6,257 294,250.7 285.3,250.7 	"/>
	<path id="XMLID_20_" class="st0" d="M313,239.7h29.8l-2.3,10.9h-18.3l-1.4,6.3h18.2l-2.7,12.1l-29.9,0L313,239.7z M313,239.7h29.8
		l-2.3,10.9h-18.3l-1.4,6.3h18.2l-2.7,12.1l-29.9,0L313,239.7z M316,226.1l29.9,0l-2.2,9.9h-29.9L316,226.1z M316,226.1l29.9,0
		l-2.2,9.9h-29.9L316,226.1z"/>
	<path id="XMLID_23_" class="st0" d="M355.7,239.7H379l4,29.2l-14,0l-1.5-17.3h-4.4l-9,17.4h-14.9l15.7-28L355.7,239.7z
		 M378.5,235.9l-1.6-9.9h-14.2l-5.5,9.9H378.5z"/>
	<path id="XMLID_24_" class="st0" d="M393.7,226.1H415l2.2,0.2c3.5,0.4,5.7,2.1,6.5,5.3c0.6,2.2,0.9,4.2,0.9,6c0,4.8-2,8.4-6,10.7
		l-4.8,2.1l12.6,36.5l-12.5,0L400.5,251l-4,18h-12.3l6.4-29.3h21.3l1.5-0.2l0.8-0.3l0.6-0.4l0.3-0.7v-0.6l-0.3-0.7l-0.8-0.5
		l-0.8-0.3l-21.7-0.1L393.7,226.1z"/>
	<path id="XMLID_25_" class="st1" d="M182.8,277.1l-3,0c-0.1-0.3-0.3-0.6-0.7-0.7c-0.4-0.2-0.8-0.3-1.2-0.3c-0.8,0-1.2,0.2-1.2,0.7
		c0,0.1,0.1,0.3,0.2,0.4c0.1,0.1,0.4,0.2,1,0.4l2,0.6c0.5,0.1,1,0.4,1.4,0.7c0.4,0.3,0.8,0.6,0.9,1c0.2,0.3,0.3,0.7,0.3,1.1
		c0,1-0.5,1.9-1.5,2.6c-1,0.7-2.3,1-3.9,1c-1.4,0-2.6-0.2-3.6-0.7c-1-0.5-1.6-1.4-1.7-2.8l3,0c0.3,0.7,1.1,1.1,2.3,1.1
		c0.5,0,0.9-0.1,1.1-0.2c0.2-0.2,0.3-0.3,0.3-0.5c0-0.1,0-0.2-0.1-0.3c-0.1-0.1-0.2-0.2-0.3-0.2c-0.1,0-0.6-0.2-1.4-0.5
		c-1.1-0.3-1.9-0.6-2.4-0.8c-0.5-0.2-0.8-0.5-1.1-0.9c-0.3-0.4-0.5-0.9-0.5-1.4c0-0.9,0.4-1.7,1.2-2.4c0.8-0.7,2.1-1,3.8-1
		c1.3,0,2.4,0.2,3.3,0.7C182,275,182.6,275.9,182.8,277.1z"/>
	<path id="XMLID_28_" class="st1" d="M209.5,284.3c-1.4,0-2.7-0.4-3.7-1.1c-1-0.8-1.6-1.9-1.6-3.3c0-1.7,0.6-3.1,1.8-4.2
		c1.2-1.2,2.7-1.7,4.6-1.7c1.5,0,2.8,0.4,3.7,1.2c1,0.8,1.5,1.9,1.5,3.2c0,1.7-0.6,3.1-1.7,4.3C212.9,283.7,211.4,284.3,209.5,284.3
		z M209.5,282c0.6,0,1.1-0.2,1.4-0.7c0.3-0.4,0.6-1.1,0.8-1.9c0.2-0.8,0.3-1.4,0.3-1.7c0-0.5-0.1-0.9-0.4-1.1
		c-0.3-0.3-0.7-0.4-1.1-0.4c-0.9,0-1.5,0.5-1.9,1.5c-0.4,1-0.6,1.9-0.6,2.7C208,281.5,208.5,282,209.5,282z"/>
	<polygon id="XMLID_29_" class="st1" points="249.4,281.8 248.8,284.3 238.5,284.3 241,273.9 245.6,273.9 243.7,281.8 	"/>
	<polygon id="XMLID_30_" class="st1" points="278.6,273.9 276,284.3 271.6,284.3 274.2,273.9 	"/>
	<path id="XMLID_33_" class="st1" d="M299.4,284.3l2.2-10.4h4.5c1.1,0,2,0.1,2.6,0.2c0.7,0.1,1.3,0.4,2,0.8c0.6,0.4,1.1,0.9,1.4,1.6
		c0.3,0.6,0.5,1.3,0.5,2.1c0,1-0.2,1.9-0.7,2.8c-0.5,0.8-1.1,1.5-2,1.9c-0.8,0.5-1.6,0.8-2.4,0.9c-0.8,0.1-1.9,0.2-3.2,0.2H299.4z
		 M303.9,282h0.9c1,0,1.7-0.1,2.1-0.3c0.5-0.2,0.8-0.6,1.2-1.2c0.3-0.6,0.5-1.2,0.5-2.1c0-1.5-0.8-2.3-2.3-2.3h-1.2L303.9,282z"/>
	<polygon id="XMLID_34_" class="st0" points="112.8,214.8 110.5,220.3 105.4,220.3 107.7,214.8 103.9,214.8 104.6,213.1 
		117.3,213.1 116.6,214.8 	"/>
	<path id="XMLID_37_" class="st0" d="M121.7,213.1h4.5l2.7,7.1h-4.4l-0.2-0.9h-3.7l-0.8,0.9h-4.5L121.7,213.1z M123.7,215.6
		l-2.4,2.9h3L123.7,215.6z"/>
	<path id="XMLID_38_" class="st0" d="M137.7,217.5h4.3c-0.6,0.9-1.5,1.6-2.7,2.1c-1.2,0.5-2.7,0.7-4.5,0.7c-2,0-3.6-0.3-4.7-0.9
		c-1.2-0.6-1.8-1.3-1.8-2.2c0-1.1,0.7-2,2.2-2.8c1.4-0.8,3.4-1.2,5.9-1.2c1.8,0,3.3,0.2,4.5,0.7c1.1,0.5,1.6,1.2,1.4,2.1l-4.1,0
		c0-0.4-0.2-0.7-0.4-0.9c-0.3-0.2-0.8-0.3-1.4-0.3c-1.2,0-2,0.4-2.4,1.1c-0.4,0.7-0.6,1.3-0.6,1.8c0,0.7,0.6,1,1.9,1
		c0.6,0,1.1-0.1,1.5-0.3C137.1,218.2,137.4,217.9,137.7,217.5z"/>
	<polygon id="XMLID_39_" class="st0" points="151.3,214.8 149.1,220.3 144,220.3 146.3,214.8 142.5,214.8 143.2,213.1 155.9,213.1 
		155.2,214.8 	"/>
	<polygon id="XMLID_40_" class="st0" points="162.3,213.1 159.7,220.3 155.3,220.3 157.9,213.1 	"/>
	<path id="XMLID_41_" class="st0" d="M171.9,217.5h4.3c-0.6,0.9-1.5,1.6-2.7,2.1c-1.2,0.5-2.7,0.7-4.5,0.7c-2,0-3.6-0.3-4.7-0.9
		c-1.2-0.6-1.8-1.3-1.8-2.2c0-1.1,0.7-2,2.2-2.8c1.4-0.8,3.4-1.2,5.9-1.2c1.8,0,3.3,0.2,4.5,0.7c1.1,0.5,1.6,1.2,1.4,2.1l-4.1,0
		c0-0.4-0.2-0.7-0.4-0.9c-0.3-0.2-0.8-0.3-1.4-0.3c-1.2,0-2,0.4-2.4,1.1c-0.4,0.7-0.6,1.3-0.6,1.8c0,0.7,0.6,1,1.9,1
		c0.6,0,1.1-0.1,1.5-0.3C171.2,218.2,171.6,217.9,171.9,217.5z"/>
	<path id="XMLID_44_" class="st0" d="M183.1,213.1h4.5l2.7,7.1H186l-0.2-0.9h-3.7l-0.8,0.9h-4.5L183.1,213.1z M185.1,215.6l-2.4,2.9
		h3L185.1,215.6z"/>
	<polygon id="XMLID_45_" class="st0" points="202,218.5 201.4,220.3 191,220.3 193.6,213.1 198.2,213.1 196.2,218.5 202,218.5 	"/>
	<polygon id="XMLID_46_" class="st0" points="225.3,218.6 224.8,220.3 215.7,220.3 217.8,213.1 226.6,213.1 226.2,214.7 
		220.9,214.7 220.6,215.8 225,215.8 224.6,217.4 220.1,217.4 219.8,218.6 225.3,218.6 	"/>
	<path id="XMLID_47_" class="st0" d="M237.1,215.4l-3,0c-0.1-0.2-0.3-0.4-0.7-0.5c-0.4-0.1-0.8-0.2-1.2-0.2c-0.8,0-1.2,0.2-1.2,0.5
		c0,0.1,0.1,0.2,0.2,0.3s0.4,0.2,1,0.3l2,0.4c0.5,0.1,1,0.3,1.4,0.5c0.4,0.2,0.8,0.4,0.9,0.7c0.2,0.2,0.3,0.5,0.3,0.8
		c0,0.7-0.5,1.3-1.5,1.8c-1,0.5-2.3,0.7-3.9,0.7c-1.4,0-2.6-0.2-3.7-0.5c-1-0.3-1.6-1-1.7-1.9l3.1,0c0.3,0.5,1.1,0.7,2.3,0.7
		c0.5,0,0.9-0.1,1.1-0.2c0.2-0.1,0.3-0.2,0.3-0.4c0-0.1,0-0.2-0.1-0.2c-0.1-0.1-0.2-0.1-0.3-0.1c-0.1,0-0.6-0.1-1.4-0.3
		c-1.1-0.2-1.9-0.4-2.4-0.6c-0.5-0.1-0.8-0.4-1.1-0.6c-0.3-0.3-0.5-0.6-0.5-1c0-0.6,0.4-1.2,1.2-1.6c0.8-0.4,2.1-0.7,3.8-0.7
		c1.3,0,2.4,0.2,3.3,0.5C236.3,213.9,236.9,214.5,237.1,215.4z"/>
	<path id="XMLID_50_" class="st0" d="M241.8,217.6l-0.7,2.6h-3.4l2-7.1h3.9c0.9,0,1.6,0,2,0.1c0.4,0,0.8,0.2,1.3,0.3
		c0.4,0.2,0.8,0.4,1.1,0.7c0.3,0.3,0.4,0.6,0.4,1c0,0.7-0.4,1.2-1.1,1.7c-0.7,0.5-1.7,0.7-3.1,0.7H241.8z M242.2,216.1h0.8
		c1.2,0,1.9-0.3,1.9-0.8c0-0.5-0.5-0.7-1.5-0.7h-0.7L242.2,216.1z"/>
	<polygon id="XMLID_51_" class="st0" points="254.5,213.1 251.9,220.3 247.5,220.3 250.1,213.1 	"/>
	<path id="XMLID_54_" class="st0" d="M259.2,220.3c-1.4,0-2.7-0.3-3.7-0.8c-1.1-0.5-1.6-1.3-1.6-2.3c0-1.1,0.6-2.1,1.8-2.9
		c1.2-0.8,2.7-1.2,4.6-1.2c1.5,0,2.8,0.3,3.7,0.8c1,0.6,1.5,1.3,1.5,2.2c0,1.1-0.6,2.1-1.7,2.9C262.6,219.9,261.1,220.3,259.2,220.3
		z M259.2,218.7c0.6,0,1.1-0.1,1.4-0.4c0.3-0.3,0.6-0.7,0.8-1.3c0.2-0.6,0.3-1,0.3-1.2c0-0.3-0.1-0.6-0.4-0.8
		c-0.3-0.2-0.7-0.3-1.1-0.3c-0.9,0-1.5,0.4-1.9,1.1c-0.4,0.7-0.6,1.3-0.6,1.9C257.7,218.4,258.2,218.7,259.2,218.7z"/>
	<polygon id="XMLID_55_" class="st0" points="278.6,213.1 276.3,220.3 273.3,220.3 269.4,215.8 268.1,220.3 264.8,220.3 
		267.1,213.1 270.7,213.1 274.2,217.3 275.3,213.1 	"/>
	<path id="XMLID_58_" class="st0" d="M283.8,213.1h4.5l2.7,7.1h-4.4l-0.2-0.9h-3.7l-0.8,0.9h-4.5L283.8,213.1z M285.8,215.6
		l-2.4,2.9h3L285.8,215.6z"/>
	<path id="XMLID_59_" class="st0" d="M297.5,216.5h6.3l-1.3,3.8h-2.1l-0.1-0.8c-0.8,0.5-2.1,0.8-3.9,0.8c-1.3,0-2.4-0.1-3.2-0.4
		c-0.8-0.3-1.5-0.6-1.9-1c-0.4-0.4-0.7-0.9-0.7-1.5c0-1.2,0.7-2.2,2-3c1.4-0.8,3.2-1.3,5.4-1.3c3.2,0,5.1,0.9,5.8,2.6l-3.7,0
		c-0.3-0.6-1-0.9-2.1-0.9c-1,0-1.8,0.3-2.2,1c-0.5,0.6-0.7,1.3-0.7,1.9c0,0.8,0.7,1.2,2,1.2c1,0,1.7-0.3,2.2-0.9H297L297.5,216.5z"
		/>
	<polygon id="XMLID_60_" class="st0" points="313.4,218.6 313,220.3 303.9,220.3 306,213.1 314.8,213.1 314.3,214.7 309.1,214.7 
		308.8,215.8 313.2,215.8 312.7,217.4 308.3,217.4 308,218.6 313.4,218.6 	"/>
	<path id="XMLID_63_" class="st0" d="M333.7,213.1h4.5l2.7,7.1h-4.4l-0.2-0.9h-3.7l-0.8,0.9h-4.5L333.7,213.1z M335.7,215.6
		l-2.4,2.9h3L335.7,215.6z"/>
	<path id="XMLID_64_" class="st0" d="M349.8,217.5h4.3c-0.6,0.9-1.5,1.6-2.7,2.1c-1.2,0.5-2.7,0.7-4.5,0.7c-2,0-3.6-0.3-4.7-0.9
		c-1.2-0.6-1.8-1.3-1.8-2.2c0-1.1,0.7-2,2.2-2.8c1.4-0.8,3.4-1.2,5.9-1.2c1.8,0,3.3,0.2,4.5,0.7c1.1,0.5,1.6,1.2,1.4,2.1l-4.1,0
		c0-0.4-0.2-0.7-0.4-0.9c-0.3-0.2-0.8-0.3-1.4-0.3c-1.2,0-2,0.4-2.4,1.1c-0.4,0.7-0.6,1.3-0.6,1.8c0,0.7,0.6,1,1.9,1
		c0.6,0,1.1-0.1,1.5-0.3C349.2,218.2,349.5,217.9,349.8,217.5z"/>
	<polygon id="XMLID_65_" class="st0" points="363.4,214.8 361.1,220.3 356,220.3 358.3,214.8 354.6,214.8 355.2,213.1 368,213.1 
		367.3,214.8 	"/>
	<polygon id="XMLID_66_" class="st0" points="374.4,213.1 371.8,220.3 367.3,220.3 369.9,213.1 	"/>
	<path id="XMLID_69_" class="st0" d="M379.1,220.3c-1.4,0-2.7-0.3-3.7-0.8c-1.1-0.5-1.6-1.3-1.6-2.3c0-1.1,0.6-2.1,1.8-2.9
		c1.2-0.8,2.7-1.2,4.6-1.2c1.5,0,2.8,0.3,3.7,0.8c1,0.6,1.5,1.3,1.5,2.2c0,1.1-0.6,2.1-1.7,2.9C382.5,219.9,380.9,220.3,379.1,220.3
		z M379.1,218.7c0.6,0,1.1-0.1,1.4-0.4c0.3-0.3,0.6-0.7,0.8-1.3c0.2-0.6,0.3-1,0.3-1.2c0-0.3-0.1-0.6-0.4-0.8
		c-0.3-0.2-0.7-0.3-1.1-0.3c-0.9,0-1.5,0.4-1.9,1.1c-0.4,0.7-0.6,1.3-0.6,1.9C377.6,218.4,378.1,218.7,379.1,218.7z"/>
	<polygon id="XMLID_70_" class="st0" points="398.5,213.1 396.2,220.3 393.2,220.3 389.2,215.8 388,220.3 384.7,220.3 386.9,213.1 
		390.6,213.1 394.1,217.3 395.2,213.1 	"/>
	<polygon id="XMLID_71_" class="st0" points="424.9,229.4 424.9,225 423.3,225 423.3,224.5 427.2,224.5 427.2,225 425.5,225 
		425.5,229.4 	"/>
	<path id="XMLID_72_" class="st0" d="M427.8,229.4v-4.9h1l1.2,3.5c0.1,0.3,0.2,0.6,0.2,0.7c0.1-0.2,0.1-0.4,0.3-0.8l1.2-3.4h0.9v4.9
		h-0.6v-4.1l-1.4,4.1h-0.6l-1.4-4.2v4.2L427.8,229.4L427.8,229.4z"/>
</g>
</svg>
